<svg xmlns="http://www.w3.org/2000/svg" xmlns:xlink="http://www.w3.org/1999/xlink" width="169.833" height="80" viewBox="0 0 169.833 80"><defs><clipPath id="a"><rect width="169.833" height="80" fill="none"/></clipPath></defs><g clip-path="url(#a)"><path d="M27.073,54.148A27.074,27.074,0,1,1,54.148,27.074,27.1,27.1,0,0,1,27.073,54.148m0-50.013A22.939,22.939,0,1,0,50.012,27.074,22.964,22.964,0,0,0,27.073,4.135m8.052,33.989V32.107h-.011a15.206,15.206,0,0,1-7.857-2.219L14.781,42.365V27.414a7.934,7.934,0,0,0-1.467,1.159l-1.5,1.5-3-3,1.5-1.5a11.8,11.8,0,0,1,4.464-2.828V11.783l4.241,4.241v6.021h.013a15.2,15.2,0,0,1,7.853,2.216L39.365,11.783V26.735a7.945,7.945,0,0,0,1.467-1.159l1.5-1.5,3,3-1.5,1.5A11.817,11.817,0,0,1,39.365,31.4V42.365Zm-16.1-6,4.742-4.742a11.279,11.279,0,0,0-4.742-1.11Zm11.36-5.364a11.286,11.286,0,0,0,4.743,1.111V22.021Z" fill="#03e5e5"/><path d="M111.695,60.7v4.022H99.23V43.393h4.389V60.7Z" transform="translate(-37.318 -16.319)" fill="#fff"/><path d="M135.651,53.944V68.695h-4.022V67.232a5.379,5.379,0,0,1-4.3,1.8,6.679,6.679,0,0,1-3.307-.807,5.729,5.729,0,0,1-2.255-2.255,6.8,6.8,0,0,1-.808-3.369V53.944h4.145v7.893a3.489,3.489,0,0,0,.868,2.484,3.389,3.389,0,0,0,4.663,0,3.487,3.487,0,0,0,.869-2.484V53.944Z" transform="translate(-45.49 -20.287)" fill="#fff"/><path d="M150.954,67.8a7.911,7.911,0,0,1-2.9-2.835,7.614,7.614,0,0,1,0-7.772,8,8,0,0,1,6.888-3.886,8.625,8.625,0,0,1,4.19,1.036,5.887,5.887,0,0,1,2.7,2.864l-3.626,1.859a3.618,3.618,0,0,0-1.341-1.31,3.81,3.81,0,0,0-1.92-.488,3.67,3.67,0,0,0-2.728,1.1,3.941,3.941,0,0,0,0,5.424,3.67,3.67,0,0,0,2.728,1.1,3.81,3.81,0,0,0,1.92-.487,3.62,3.62,0,0,0,1.341-1.311l3.626,1.859a5.885,5.885,0,0,1-2.7,2.864,8.625,8.625,0,0,1-4.19,1.036,7.874,7.874,0,0,1-3.993-1.051" transform="translate(-55.28 -20.048)" fill="#fff"/><path d="M186.933,53.759V68.51H182.91V67.078a5.721,5.721,0,0,1-4.358,1.737,7.568,7.568,0,0,1-6.629-3.809,7.721,7.721,0,0,1,2.773-10.53,7.526,7.526,0,0,1,3.855-1.021,5.723,5.723,0,0,1,4.358,1.737V53.759Zm-5.166,10.073a3.754,3.754,0,0,0,0-5.394,4.051,4.051,0,0,0-5.577,0,3.752,3.752,0,0,0,0,5.394,4.051,4.051,0,0,0,5.577,0" transform="translate(-64.272 -20.103)" fill="#fff"/><path d="M201.588,68.319a6.572,6.572,0,0,1-2.575-1.753l2.407-2.622a4.424,4.424,0,0,0,1.433,1.1,3.95,3.95,0,0,0,1.738.4,2.315,2.315,0,0,0,1.4-.381,1.2,1.2,0,0,0,.518-1.021.953.953,0,0,0-.548-.9,7.671,7.671,0,0,0-1.768-.563,10.566,10.566,0,0,1-3.4-1.4,3.432,3.432,0,0,1-1.447-3.109,4.507,4.507,0,0,1,.67-2.422,4.634,4.634,0,0,1,1.92-1.707,6.467,6.467,0,0,1,2.926-.625,6.376,6.376,0,0,1,3.124.731,4.641,4.641,0,0,1,1.966,2.012l-3.078,1.676a2.264,2.264,0,0,0-1.921-.944,1.822,1.822,0,0,0-1.188.349,1.054,1.054,0,0,0-.427.839.872.872,0,0,0,.595.838,10.623,10.623,0,0,0,1.9.533,6.8,6.8,0,0,1,3.307,1.524,3.881,3.881,0,0,1,1.265,3.047,4.4,4.4,0,0,1-1.646,3.6,6.443,6.443,0,0,1-4.206,1.34,8.543,8.543,0,0,1-2.972-.533" transform="translate(-74.843 -20.048)" fill="#fff"/><path d="M111.884,114.726l-2.042-5.516a12.475,12.475,0,0,1-3.352,1.006l-1.737.305a6.725,6.725,0,0,0-2.834,1.021,5.009,5.009,0,0,0-1.524,2.3l-.335.883h-4.3l7.863-21.333h4.815l7.863,21.333Zm-3.383-9.174-2.529-6.888-3.108,8.411a14.068,14.068,0,0,1,1.615-.4l1.25-.213a7.689,7.689,0,0,0,2.773-.915" transform="translate(-36.013 -35.123)" fill="#fff"/><rect width="4.206" height="21.333" transform="translate(81.231 58.27)" fill="#fff"/><path d="M163.981,105.128a6.191,6.191,0,0,1,1.706,4.557v8.807h-4.145v-8.046a3.35,3.35,0,0,0-.823-2.377,3.241,3.241,0,0,0-4.449,0,3.35,3.35,0,0,0-.824,2.377v8.046H151.3v-8.046a3.348,3.348,0,0,0-.824-2.377,3.241,3.241,0,0,0-4.449,0,3.35,3.35,0,0,0-.823,2.377v8.046h-4.145V103.741h4.023v1.615a5.4,5.4,0,0,1,4.389-1.95,6.351,6.351,0,0,1,2.849.625,5.063,5.063,0,0,1,2.027,1.783,5.763,5.763,0,0,1,2.164-1.8,6.722,6.722,0,0,1,2.926-.61,6.108,6.108,0,0,1,4.541,1.722" transform="translate(-53.05 -38.888)" fill="#fff"/><path d="M197.59,111.994a53.29,53.29,0,0,0-5.669.351,31.831,31.831,0,0,0-4.694.869,3.655,3.655,0,0,0,1.418,1.418,4.208,4.208,0,0,0,2.088.5,5.444,5.444,0,0,0,2.118-.427,5.574,5.574,0,0,0,1.813-1.219l2.164,2.835a7.6,7.6,0,0,1-2.713,1.874,8.767,8.767,0,0,1-3.383.655,8.231,8.231,0,0,1-4.084-1.021,7.439,7.439,0,0,1-2.865-2.8,8.173,8.173,0,0,1-.031-7.909,7.4,7.4,0,0,1,2.773-2.789,7.724,7.724,0,0,1,3.932-1.021,7.218,7.218,0,0,1,3.733.96,6.652,6.652,0,0,1,2.545,2.7,8.444,8.444,0,0,1,.914,3.993,8.028,8.028,0,0,1-.061,1.036m-9.6-4.1a3.93,3.93,0,0,0-1.189,2.331,28.81,28.81,0,0,1,6.644-1.036,2.911,2.911,0,0,0-1.127-1.585,3.637,3.637,0,0,0-4.328.29" transform="translate(-68.726 -38.851)" fill="#fff"/><path d="M209.047,96.41a2.516,2.516,0,0,1-.777-1.844,2.468,2.468,0,0,1,.777-1.828,2.543,2.543,0,0,1,1.844-.762,2.511,2.511,0,0,1,1.813.762,2.47,2.47,0,0,1,.777,1.828,2.543,2.543,0,0,1-.762,1.844,2.47,2.47,0,0,1-1.828.777,2.519,2.519,0,0,1-1.844-.777m-.23,3.033h4.145v14.751h-4.145Z" transform="translate(-78.325 -34.59)" fill="#fff"/><path d="M234.3,93.393v21.333h-4.023v-1.433a5.721,5.721,0,0,1-4.358,1.737,7.571,7.571,0,0,1-6.629-3.809,7.721,7.721,0,0,1,2.773-10.53,7.526,7.526,0,0,1,3.855-1.021,5.73,5.73,0,0,1,4.236,1.615V93.393Zm-5.166,16.655a3.754,3.754,0,0,0,0-5.394,4.051,4.051,0,0,0-5.577,0,3.752,3.752,0,0,0,0,5.394,4.051,4.051,0,0,0,5.577,0" transform="translate(-82.083 -35.123)" fill="#fff"/><path d="M262.538,103.759V118.51h-4.023v-1.433a5.721,5.721,0,0,1-4.358,1.737,7.571,7.571,0,0,1-6.629-3.809,7.721,7.721,0,0,1,2.773-10.53,7.526,7.526,0,0,1,3.855-1.021,5.723,5.723,0,0,1,4.358,1.737v-1.433Zm-5.166,10.073a3.754,3.754,0,0,0,0-5.394,4.051,4.051,0,0,0-5.577,0,3.752,3.752,0,0,0,0,5.394,4.051,4.051,0,0,0,5.577,0" transform="translate(-92.704 -38.907)" fill="#fff"/></g></svg>